<mxfile host="app.diagrams.net" modified="2024-06-11T08:51:07.022Z" agent="Mozilla/5.0 (Windows NT 10.0; Win64; x64) AppleWebKit/537.36 (KHTML, like Gecko) Chrome/123.0.0.0 Safari/537.36 Edg/123.0.0.0" etag="upYypVHBBMAr1TfJRlg-" version="24.4.9" type="device">
  <diagram id="R2lEEEUBdFMjLlhIrx00" name="Page-1">
    <mxGraphModel dx="1566" dy="2071" grid="1" gridSize="10" guides="1" tooltips="1" connect="1" arrows="1" fold="1" page="1" pageScale="1" pageWidth="850" pageHeight="1100" math="0" shadow="0" extFonts="Permanent Marker^https://fonts.googleapis.com/css?family=Permanent+Marker">
      <root>
        <mxCell id="0" />
        <mxCell id="1" parent="0" />
        <mxCell id="IPDYAbLBvHTaS5DrfQRZ-5" style="edgeStyle=none;rounded=0;orthogonalLoop=1;jettySize=auto;html=1;exitX=0.75;exitY=1;exitDx=0;exitDy=0;strokeColor=default;align=center;verticalAlign=middle;fontFamily=Helvetica;fontSize=11;fontColor=default;labelBackgroundColor=default;endArrow=none;" parent="1" source="w-bUhG9tgI94XME9KLcf-1" target="w-bUhG9tgI94XME9KLcf-60" edge="1">
          <mxGeometry relative="1" as="geometry" />
        </mxCell>
        <mxCell id="w-bUhG9tgI94XME9KLcf-1" value="&lt;font style=&quot;font-size: 18px;&quot;&gt;用户&lt;/font&gt;" style="rounded=0;whiteSpace=wrap;html=1;" parent="1" vertex="1">
          <mxGeometry x="921.75" y="-775" width="58.25" height="35" as="geometry" />
        </mxCell>
        <mxCell id="w-bUhG9tgI94XME9KLcf-25" value="" style="edgeStyle=none;rounded=0;orthogonalLoop=1;jettySize=auto;html=1;strokeColor=default;align=center;verticalAlign=middle;fontFamily=Helvetica;fontSize=11;fontColor=default;labelBackgroundColor=default;endArrow=none;" parent="1" source="w-bUhG9tgI94XME9KLcf-4" target="w-bUhG9tgI94XME9KLcf-24" edge="1">
          <mxGeometry relative="1" as="geometry" />
        </mxCell>
        <mxCell id="w-bUhG9tgI94XME9KLcf-35" value="&lt;font style=&quot;font-size: 18px;&quot;&gt;N&lt;/font&gt;" style="edgeLabel;html=1;align=center;verticalAlign=middle;resizable=0;points=[];fontFamily=Helvetica;fontSize=11;fontColor=default;labelBackgroundColor=default;" parent="w-bUhG9tgI94XME9KLcf-25" vertex="1" connectable="0">
          <mxGeometry x="0.0199" relative="1" as="geometry">
            <mxPoint as="offset" />
          </mxGeometry>
        </mxCell>
        <mxCell id="w-bUhG9tgI94XME9KLcf-127" style="edgeStyle=none;rounded=0;orthogonalLoop=1;jettySize=auto;html=1;exitX=0.25;exitY=1;exitDx=0;exitDy=0;entryX=1;entryY=0;entryDx=0;entryDy=0;strokeColor=default;align=center;verticalAlign=middle;fontFamily=Helvetica;fontSize=11;fontColor=default;labelBackgroundColor=default;endArrow=none;" parent="1" source="w-bUhG9tgI94XME9KLcf-4" target="w-bUhG9tgI94XME9KLcf-126" edge="1">
          <mxGeometry relative="1" as="geometry" />
        </mxCell>
        <mxCell id="W53H7S4lqF-D5ezC9vgU-52" style="edgeStyle=none;rounded=0;orthogonalLoop=1;jettySize=auto;html=1;exitX=0.75;exitY=1;exitDx=0;exitDy=0;entryX=0.321;entryY=-0.005;entryDx=0;entryDy=0;strokeColor=default;align=center;verticalAlign=middle;fontFamily=Helvetica;fontSize=11;fontColor=default;labelBackgroundColor=default;endArrow=none;entryPerimeter=0;" parent="1" source="w-bUhG9tgI94XME9KLcf-4" target="W53H7S4lqF-D5ezC9vgU-51" edge="1">
          <mxGeometry relative="1" as="geometry" />
        </mxCell>
        <mxCell id="hmtRKzBcNORo22viZgbk-30" style="edgeStyle=none;rounded=0;orthogonalLoop=1;jettySize=auto;html=1;exitX=1;exitY=0.75;exitDx=0;exitDy=0;strokeColor=default;align=center;verticalAlign=middle;fontFamily=Helvetica;fontSize=11;fontColor=default;labelBackgroundColor=default;endArrow=none;" edge="1" parent="1" source="w-bUhG9tgI94XME9KLcf-4" target="hmtRKzBcNORo22viZgbk-29">
          <mxGeometry relative="1" as="geometry" />
        </mxCell>
        <mxCell id="hmtRKzBcNORo22viZgbk-31" style="edgeStyle=none;rounded=0;orthogonalLoop=1;jettySize=auto;html=1;exitX=1;exitY=1;exitDx=0;exitDy=0;strokeColor=default;align=center;verticalAlign=middle;fontFamily=Helvetica;fontSize=11;fontColor=default;labelBackgroundColor=default;endArrow=none;" edge="1" parent="1" source="w-bUhG9tgI94XME9KLcf-4" target="hmtRKzBcNORo22viZgbk-23">
          <mxGeometry relative="1" as="geometry" />
        </mxCell>
        <mxCell id="w-bUhG9tgI94XME9KLcf-4" value="&lt;font style=&quot;font-size: 18px;&quot;&gt;文件夹&lt;/font&gt;" style="rounded=0;whiteSpace=wrap;html=1;" parent="1" vertex="1">
          <mxGeometry x="1295.25" y="-505" width="89.5" height="60" as="geometry" />
        </mxCell>
        <mxCell id="w-bUhG9tgI94XME9KLcf-26" value="" style="edgeStyle=none;rounded=0;orthogonalLoop=1;jettySize=auto;html=1;strokeColor=default;align=center;verticalAlign=middle;fontFamily=Helvetica;fontSize=11;fontColor=default;labelBackgroundColor=default;endArrow=none;" parent="1" source="w-bUhG9tgI94XME9KLcf-5" target="w-bUhG9tgI94XME9KLcf-24" edge="1">
          <mxGeometry relative="1" as="geometry" />
        </mxCell>
        <mxCell id="w-bUhG9tgI94XME9KLcf-30" value="&lt;font style=&quot;font-size: 18px;&quot;&gt;M&lt;/font&gt;" style="edgeLabel;html=1;align=center;verticalAlign=middle;resizable=0;points=[];fontFamily=Helvetica;fontSize=11;fontColor=default;labelBackgroundColor=default;" parent="w-bUhG9tgI94XME9KLcf-26" vertex="1" connectable="0">
          <mxGeometry x="0.0224" y="-3" relative="1" as="geometry">
            <mxPoint as="offset" />
          </mxGeometry>
        </mxCell>
        <mxCell id="w-bUhG9tgI94XME9KLcf-48" style="edgeStyle=none;rounded=0;orthogonalLoop=1;jettySize=auto;html=1;exitX=0;exitY=0.5;exitDx=0;exitDy=0;entryX=1;entryY=0.5;entryDx=0;entryDy=0;strokeColor=default;align=center;verticalAlign=middle;fontFamily=Helvetica;fontSize=11;fontColor=default;labelBackgroundColor=default;endArrow=none;" parent="1" source="w-bUhG9tgI94XME9KLcf-5" target="w-bUhG9tgI94XME9KLcf-47" edge="1">
          <mxGeometry relative="1" as="geometry">
            <Array as="points" />
          </mxGeometry>
        </mxCell>
        <mxCell id="w-bUhG9tgI94XME9KLcf-53" value="&lt;font style=&quot;font-size: 18px;&quot;&gt;N&lt;/font&gt;" style="edgeLabel;html=1;align=center;verticalAlign=middle;resizable=0;points=[];fontFamily=Helvetica;fontSize=11;fontColor=default;labelBackgroundColor=default;" parent="w-bUhG9tgI94XME9KLcf-48" vertex="1" connectable="0">
          <mxGeometry x="0.0383" relative="1" as="geometry">
            <mxPoint as="offset" />
          </mxGeometry>
        </mxCell>
        <mxCell id="w-bUhG9tgI94XME9KLcf-5" value="&lt;font style=&quot;font-size: 18px;&quot;&gt;文件&lt;/font&gt;" style="rounded=0;whiteSpace=wrap;html=1;" parent="1" vertex="1">
          <mxGeometry x="495" y="-500" width="80" height="50" as="geometry" />
        </mxCell>
        <mxCell id="w-bUhG9tgI94XME9KLcf-19" value="&lt;font style=&quot;font-size: 18px;&quot;&gt;N&lt;/font&gt;" style="edgeStyle=none;rounded=0;orthogonalLoop=1;jettySize=auto;html=1;strokeColor=default;align=center;verticalAlign=middle;fontFamily=Helvetica;fontSize=11;fontColor=default;labelBackgroundColor=default;endArrow=none;" parent="1" source="w-bUhG9tgI94XME9KLcf-12" target="w-bUhG9tgI94XME9KLcf-4" edge="1">
          <mxGeometry relative="1" as="geometry" />
        </mxCell>
        <mxCell id="w-bUhG9tgI94XME9KLcf-12" value="&lt;font style=&quot;font-size: 18px;&quot;&gt;管理&lt;/font&gt;" style="rhombus;whiteSpace=wrap;html=1;" parent="1" vertex="1">
          <mxGeometry x="1110" y="-660" width="130" height="70" as="geometry" />
        </mxCell>
        <mxCell id="w-bUhG9tgI94XME9KLcf-15" value="" style="endArrow=none;html=1;rounded=0;entryX=1;entryY=1;entryDx=0;entryDy=0;exitX=0.359;exitY=0.166;exitDx=0;exitDy=0;exitPerimeter=0;" parent="1" source="w-bUhG9tgI94XME9KLcf-12" target="w-bUhG9tgI94XME9KLcf-1" edge="1">
          <mxGeometry width="50" height="50" relative="1" as="geometry">
            <mxPoint x="1070" y="-630" as="sourcePoint" />
            <mxPoint x="845" y="-640" as="targetPoint" />
          </mxGeometry>
        </mxCell>
        <mxCell id="w-bUhG9tgI94XME9KLcf-20" value="&lt;font style=&quot;font-size: 18px;&quot;&gt;1&lt;/font&gt;" style="edgeLabel;html=1;align=center;verticalAlign=middle;resizable=0;points=[];fontFamily=Helvetica;fontSize=11;fontColor=default;labelBackgroundColor=default;" parent="w-bUhG9tgI94XME9KLcf-15" vertex="1" connectable="0">
          <mxGeometry x="0.0742" y="-1" relative="1" as="geometry">
            <mxPoint as="offset" />
          </mxGeometry>
        </mxCell>
        <mxCell id="w-bUhG9tgI94XME9KLcf-24" value="&lt;font style=&quot;font-size: 18px;&quot;&gt;收纳&lt;/font&gt;" style="rhombus;whiteSpace=wrap;html=1;rotation=0;" parent="1" vertex="1">
          <mxGeometry x="900.13" y="-330" width="130" height="70" as="geometry" />
        </mxCell>
        <mxCell id="w-bUhG9tgI94XME9KLcf-39" style="edgeStyle=none;rounded=0;orthogonalLoop=1;jettySize=auto;html=1;entryX=1;entryY=0;entryDx=0;entryDy=0;strokeColor=default;align=center;verticalAlign=middle;fontFamily=Helvetica;fontSize=11;fontColor=default;labelBackgroundColor=default;endArrow=none;exitX=0.391;exitY=0.845;exitDx=0;exitDy=0;exitPerimeter=0;" parent="1" source="w-bUhG9tgI94XME9KLcf-38" target="w-bUhG9tgI94XME9KLcf-5" edge="1">
          <mxGeometry relative="1" as="geometry">
            <mxPoint x="695" y="-580" as="sourcePoint" />
          </mxGeometry>
        </mxCell>
        <mxCell id="w-bUhG9tgI94XME9KLcf-91" value="&lt;font style=&quot;font-size: 18px;&quot;&gt;N&lt;/font&gt;" style="edgeLabel;html=1;align=center;verticalAlign=middle;resizable=0;points=[];fontFamily=Helvetica;fontSize=11;fontColor=default;labelBackgroundColor=default;" parent="w-bUhG9tgI94XME9KLcf-39" vertex="1" connectable="0">
          <mxGeometry x="0.1393" y="-1" relative="1" as="geometry">
            <mxPoint x="-1" as="offset" />
          </mxGeometry>
        </mxCell>
        <mxCell id="w-bUhG9tgI94XME9KLcf-40" style="edgeStyle=none;rounded=0;orthogonalLoop=1;jettySize=auto;html=1;exitX=0.677;exitY=0.196;exitDx=0;exitDy=0;strokeColor=default;align=center;verticalAlign=middle;fontFamily=Helvetica;fontSize=11;fontColor=default;labelBackgroundColor=default;endArrow=none;exitPerimeter=0;" parent="1" source="w-bUhG9tgI94XME9KLcf-38" target="w-bUhG9tgI94XME9KLcf-1" edge="1">
          <mxGeometry relative="1" as="geometry" />
        </mxCell>
        <mxCell id="w-bUhG9tgI94XME9KLcf-41" value="&lt;font style=&quot;font-size: 18px;&quot;&gt;1&lt;/font&gt;" style="edgeLabel;html=1;align=center;verticalAlign=middle;resizable=0;points=[];fontFamily=Helvetica;fontSize=11;fontColor=default;labelBackgroundColor=default;" parent="w-bUhG9tgI94XME9KLcf-40" vertex="1" connectable="0">
          <mxGeometry x="0.1502" y="-3" relative="1" as="geometry">
            <mxPoint as="offset" />
          </mxGeometry>
        </mxCell>
        <mxCell id="w-bUhG9tgI94XME9KLcf-38" value="&lt;font style=&quot;font-size: 18px;&quot;&gt;功能操作&lt;/font&gt;" style="rhombus;whiteSpace=wrap;html=1;" parent="1" vertex="1">
          <mxGeometry x="650" y="-645" width="137.5" height="70" as="geometry" />
        </mxCell>
        <mxCell id="IPDYAbLBvHTaS5DrfQRZ-22" value="" style="edgeStyle=none;rounded=0;orthogonalLoop=1;jettySize=auto;html=1;strokeColor=default;align=center;verticalAlign=middle;fontFamily=Helvetica;fontSize=11;fontColor=default;labelBackgroundColor=default;endArrow=none;entryX=0.368;entryY=0.964;entryDx=0;entryDy=0;entryPerimeter=0;" parent="1" source="w-bUhG9tgI94XME9KLcf-44" target="C1nQSUP3_iVQXWu07cKW-8" edge="1">
          <mxGeometry relative="1" as="geometry" />
        </mxCell>
        <mxCell id="hmtRKzBcNORo22viZgbk-47" style="edgeStyle=none;rounded=0;orthogonalLoop=1;jettySize=auto;html=1;exitX=0;exitY=1;exitDx=0;exitDy=0;entryX=1;entryY=0;entryDx=0;entryDy=0;strokeColor=default;align=center;verticalAlign=middle;fontFamily=Helvetica;fontSize=11;fontColor=default;labelBackgroundColor=default;endArrow=none;" edge="1" parent="1" source="w-bUhG9tgI94XME9KLcf-44" target="hmtRKzBcNORo22viZgbk-46">
          <mxGeometry relative="1" as="geometry" />
        </mxCell>
        <mxCell id="hmtRKzBcNORo22viZgbk-49" style="edgeStyle=none;rounded=0;orthogonalLoop=1;jettySize=auto;html=1;exitX=1;exitY=1;exitDx=0;exitDy=0;entryX=0.5;entryY=0;entryDx=0;entryDy=0;strokeColor=default;align=center;verticalAlign=middle;fontFamily=Helvetica;fontSize=11;fontColor=default;labelBackgroundColor=default;endArrow=none;" edge="1" parent="1" source="w-bUhG9tgI94XME9KLcf-44" target="hmtRKzBcNORo22viZgbk-48">
          <mxGeometry relative="1" as="geometry" />
        </mxCell>
        <mxCell id="w-bUhG9tgI94XME9KLcf-44" value="&lt;span style=&quot;font-size: 18px;&quot;&gt;回收站&lt;/span&gt;" style="rounded=0;whiteSpace=wrap;html=1;" parent="1" vertex="1">
          <mxGeometry x="925.13" y="-500" width="80" height="50" as="geometry" />
        </mxCell>
        <mxCell id="w-bUhG9tgI94XME9KLcf-49" style="edgeStyle=none;rounded=0;orthogonalLoop=1;jettySize=auto;html=1;exitX=0;exitY=0.5;exitDx=0;exitDy=0;strokeColor=default;align=center;verticalAlign=middle;fontFamily=Helvetica;fontSize=11;fontColor=default;labelBackgroundColor=default;endArrow=none;" parent="1" source="w-bUhG9tgI94XME9KLcf-47" target="w-bUhG9tgI94XME9KLcf-44" edge="1">
          <mxGeometry relative="1" as="geometry" />
        </mxCell>
        <mxCell id="W53H7S4lqF-D5ezC9vgU-40" value="&lt;font style=&quot;font-size: 18px;&quot;&gt;M&lt;/font&gt;" style="edgeLabel;html=1;align=center;verticalAlign=middle;resizable=0;points=[];fontFamily=Helvetica;fontSize=11;fontColor=default;labelBackgroundColor=default;" parent="w-bUhG9tgI94XME9KLcf-49" vertex="1" connectable="0">
          <mxGeometry x="0.4388" y="1" relative="1" as="geometry">
            <mxPoint as="offset" />
          </mxGeometry>
        </mxCell>
        <mxCell id="w-bUhG9tgI94XME9KLcf-47" value="&lt;font style=&quot;font-size: 18px;&quot;&gt;删除&lt;/font&gt;" style="rhombus;whiteSpace=wrap;html=1;" parent="1" vertex="1">
          <mxGeometry x="715" y="-500" width="100" height="50" as="geometry" />
        </mxCell>
        <mxCell id="w-bUhG9tgI94XME9KLcf-55" value="&lt;font style=&quot;font-size: 18px;&quot;&gt;昵称&lt;/font&gt;" style="ellipse;whiteSpace=wrap;html=1;fontFamily=Helvetica;fontSize=11;fontColor=default;labelBackgroundColor=default;" parent="1" vertex="1">
          <mxGeometry x="1047.68" y="-831.25" width="62.32" height="51.25" as="geometry" />
        </mxCell>
        <mxCell id="w-bUhG9tgI94XME9KLcf-66" style="edgeStyle=none;rounded=0;orthogonalLoop=1;jettySize=auto;html=1;strokeColor=default;align=center;verticalAlign=middle;fontFamily=Helvetica;fontSize=11;fontColor=default;labelBackgroundColor=default;endArrow=none;entryX=0.25;entryY=0;entryDx=0;entryDy=0;exitX=1;exitY=1;exitDx=0;exitDy=0;" parent="1" source="w-bUhG9tgI94XME9KLcf-59" target="w-bUhG9tgI94XME9KLcf-1" edge="1">
          <mxGeometry relative="1" as="geometry">
            <mxPoint x="1030" y="-740" as="sourcePoint" />
            <mxPoint x="1004" y="-754" as="targetPoint" />
          </mxGeometry>
        </mxCell>
        <mxCell id="w-bUhG9tgI94XME9KLcf-59" value="&lt;font style=&quot;font-size: 18px;&quot;&gt;密码&lt;/font&gt;" style="ellipse;whiteSpace=wrap;html=1;fontFamily=Helvetica;fontSize=11;fontColor=default;labelBackgroundColor=default;" parent="1" vertex="1">
          <mxGeometry x="831.49" y="-860.62" width="60" height="48.75" as="geometry" />
        </mxCell>
        <mxCell id="w-bUhG9tgI94XME9KLcf-60" value="&lt;span style=&quot;font-size: 18px;&quot;&gt;头像路径&lt;/span&gt;" style="ellipse;whiteSpace=wrap;html=1;fontFamily=Helvetica;fontSize=11;fontColor=default;labelBackgroundColor=default;" parent="1" vertex="1">
          <mxGeometry x="950.0000000000001" y="-700" width="90" height="60" as="geometry" />
        </mxCell>
        <mxCell id="w-bUhG9tgI94XME9KLcf-86" style="edgeStyle=none;rounded=0;orthogonalLoop=1;jettySize=auto;html=1;exitX=0.684;exitY=0.086;exitDx=0;exitDy=0;strokeColor=default;align=center;verticalAlign=middle;fontFamily=Helvetica;fontSize=11;fontColor=default;labelBackgroundColor=default;endArrow=none;entryX=0.5;entryY=0;entryDx=0;entryDy=0;exitPerimeter=0;" parent="1" source="w-bUhG9tgI94XME9KLcf-71" target="w-bUhG9tgI94XME9KLcf-5" edge="1">
          <mxGeometry relative="1" as="geometry">
            <mxPoint x="375" y="-290" as="targetPoint" />
          </mxGeometry>
        </mxCell>
        <mxCell id="w-bUhG9tgI94XME9KLcf-71" value="&lt;span style=&quot;font-size: 18px;&quot;&gt;上传时间&lt;/span&gt;" style="ellipse;whiteSpace=wrap;html=1;fontFamily=Helvetica;fontSize=11;fontColor=default;labelBackgroundColor=default;" parent="1" vertex="1">
          <mxGeometry x="460" y="-640" width="90" height="60" as="geometry" />
        </mxCell>
        <mxCell id="w-bUhG9tgI94XME9KLcf-82" value="" style="edgeStyle=none;rounded=0;orthogonalLoop=1;jettySize=auto;html=1;strokeColor=default;align=center;verticalAlign=middle;fontFamily=Helvetica;fontSize=11;fontColor=default;labelBackgroundColor=default;endArrow=none;entryX=0;entryY=0;entryDx=0;entryDy=0;" parent="1" source="w-bUhG9tgI94XME9KLcf-80" target="w-bUhG9tgI94XME9KLcf-5" edge="1">
          <mxGeometry relative="1" as="geometry" />
        </mxCell>
        <mxCell id="w-bUhG9tgI94XME9KLcf-80" value="&lt;font style=&quot;font-size: 18px;&quot;&gt;文件名&lt;/font&gt;" style="ellipse;whiteSpace=wrap;html=1;fontFamily=Helvetica;fontSize=11;fontColor=default;labelBackgroundColor=default;" parent="1" vertex="1">
          <mxGeometry x="355" y="-595" width="70" height="40" as="geometry" />
        </mxCell>
        <mxCell id="hmtRKzBcNORo22viZgbk-34" style="edgeStyle=none;rounded=0;orthogonalLoop=1;jettySize=auto;html=1;exitX=1;exitY=1;exitDx=0;exitDy=0;entryX=0.5;entryY=0;entryDx=0;entryDy=0;strokeColor=default;align=center;verticalAlign=middle;fontFamily=Helvetica;fontSize=11;fontColor=default;labelBackgroundColor=default;endArrow=none;" edge="1" parent="1" source="w-bUhG9tgI94XME9KLcf-81" target="w-bUhG9tgI94XME9KLcf-5">
          <mxGeometry relative="1" as="geometry" />
        </mxCell>
        <mxCell id="w-bUhG9tgI94XME9KLcf-81" value="&lt;font style=&quot;font-size: 18px;&quot;&gt;大小&lt;/font&gt;" style="ellipse;whiteSpace=wrap;html=1;fontFamily=Helvetica;fontSize=11;fontColor=default;labelBackgroundColor=default;" parent="1" vertex="1">
          <mxGeometry x="400" y="-630" width="50" height="40" as="geometry" />
        </mxCell>
        <mxCell id="W53H7S4lqF-D5ezC9vgU-50" value="" style="edgeStyle=none;rounded=0;orthogonalLoop=1;jettySize=auto;html=1;strokeColor=default;align=center;verticalAlign=middle;fontFamily=Helvetica;fontSize=11;fontColor=default;labelBackgroundColor=default;endArrow=none;" parent="1" source="w-bUhG9tgI94XME9KLcf-90" target="w-bUhG9tgI94XME9KLcf-4" edge="1">
          <mxGeometry relative="1" as="geometry" />
        </mxCell>
        <mxCell id="w-bUhG9tgI94XME9KLcf-90" value="&lt;span style=&quot;font-size: 18px;&quot;&gt;文件夹名&lt;/span&gt;" style="ellipse;whiteSpace=wrap;html=1;fontFamily=Helvetica;fontSize=11;fontColor=default;labelBackgroundColor=default;" parent="1" vertex="1">
          <mxGeometry x="1280" y="-385" width="84.75" height="60" as="geometry" />
        </mxCell>
        <mxCell id="w-bUhG9tgI94XME9KLcf-126" value="&lt;span style=&quot;font-size: 18px;&quot;&gt;创建时间&lt;/span&gt;" style="ellipse;whiteSpace=wrap;html=1;fontFamily=Helvetica;fontSize=11;fontColor=default;labelBackgroundColor=default;" parent="1" vertex="1">
          <mxGeometry x="1200" y="-415" width="80" height="60" as="geometry" />
        </mxCell>
        <mxCell id="W53H7S4lqF-D5ezC9vgU-2" style="edgeStyle=orthogonalEdgeStyle;rounded=0;orthogonalLoop=1;jettySize=auto;html=1;exitX=0.5;exitY=1;exitDx=0;exitDy=0;" parent="1" source="w-bUhG9tgI94XME9KLcf-5" target="w-bUhG9tgI94XME9KLcf-5" edge="1">
          <mxGeometry relative="1" as="geometry" />
        </mxCell>
        <mxCell id="W53H7S4lqF-D5ezC9vgU-7" style="edgeStyle=none;rounded=0;orthogonalLoop=1;jettySize=auto;html=1;exitX=0.5;exitY=1;exitDx=0;exitDy=0;entryX=0.5;entryY=0;entryDx=0;entryDy=0;strokeColor=default;align=center;verticalAlign=middle;fontFamily=Helvetica;fontSize=11;fontColor=default;labelBackgroundColor=default;endArrow=none;" parent="1" source="W53H7S4lqF-D5ezC9vgU-4" target="w-bUhG9tgI94XME9KLcf-47" edge="1">
          <mxGeometry relative="1" as="geometry" />
        </mxCell>
        <mxCell id="W53H7S4lqF-D5ezC9vgU-4" value="&lt;font style=&quot;font-size: 18px;&quot;&gt;删除标志&lt;/font&gt;" style="ellipse;whiteSpace=wrap;html=1;fontFamily=Helvetica;fontSize=11;fontColor=default;labelBackgroundColor=default;" parent="1" vertex="1">
          <mxGeometry x="720" y="-580" width="90" height="60" as="geometry" />
        </mxCell>
        <mxCell id="W53H7S4lqF-D5ezC9vgU-10" style="edgeStyle=none;rounded=0;orthogonalLoop=1;jettySize=auto;html=1;exitX=1;exitY=0.5;exitDx=0;exitDy=0;entryX=0;entryY=0.5;entryDx=0;entryDy=0;strokeColor=default;align=center;verticalAlign=middle;fontFamily=Helvetica;fontSize=11;fontColor=default;labelBackgroundColor=default;endArrow=none;" parent="1" source="W53H7S4lqF-D5ezC9vgU-8" target="W53H7S4lqF-D5ezC9vgU-9" edge="1">
          <mxGeometry relative="1" as="geometry" />
        </mxCell>
        <mxCell id="W53H7S4lqF-D5ezC9vgU-13" value="&lt;font style=&quot;font-size: 18px;&quot;&gt;1&lt;/font&gt;" style="edgeLabel;html=1;align=center;verticalAlign=middle;resizable=0;points=[];fontFamily=Helvetica;fontSize=11;fontColor=default;labelBackgroundColor=default;" parent="W53H7S4lqF-D5ezC9vgU-10" vertex="1" connectable="0">
          <mxGeometry x="-0.2903" y="2" relative="1" as="geometry">
            <mxPoint as="offset" />
          </mxGeometry>
        </mxCell>
        <mxCell id="W53H7S4lqF-D5ezC9vgU-17" style="edgeStyle=none;rounded=0;orthogonalLoop=1;jettySize=auto;html=1;exitX=0;exitY=0.5;exitDx=0;exitDy=0;entryX=1;entryY=1;entryDx=0;entryDy=0;strokeColor=default;align=center;verticalAlign=middle;fontFamily=Helvetica;fontSize=11;fontColor=default;labelBackgroundColor=default;endArrow=none;" parent="1" source="W53H7S4lqF-D5ezC9vgU-8" target="W53H7S4lqF-D5ezC9vgU-14" edge="1">
          <mxGeometry relative="1" as="geometry" />
        </mxCell>
        <mxCell id="C1nQSUP3_iVQXWu07cKW-11" style="edgeStyle=none;rounded=0;orthogonalLoop=1;jettySize=auto;html=1;exitX=0.5;exitY=0;exitDx=0;exitDy=0;entryX=0.5;entryY=1;entryDx=0;entryDy=0;strokeColor=default;align=center;verticalAlign=middle;fontFamily=Helvetica;fontSize=11;fontColor=default;labelBackgroundColor=default;endArrow=none;" parent="1" source="W53H7S4lqF-D5ezC9vgU-8" target="C1nQSUP3_iVQXWu07cKW-10" edge="1">
          <mxGeometry relative="1" as="geometry" />
        </mxCell>
        <mxCell id="W53H7S4lqF-D5ezC9vgU-8" value="&lt;font style=&quot;font-size: 18px;&quot;&gt;等级&lt;/font&gt;" style="rounded=0;whiteSpace=wrap;html=1;" parent="1" vertex="1">
          <mxGeometry x="550" y="-800" width="80" height="60" as="geometry" />
        </mxCell>
        <mxCell id="W53H7S4lqF-D5ezC9vgU-11" style="edgeStyle=none;rounded=0;orthogonalLoop=1;jettySize=auto;html=1;exitX=1;exitY=0.5;exitDx=0;exitDy=0;strokeColor=default;align=center;verticalAlign=middle;fontFamily=Helvetica;fontSize=11;fontColor=default;labelBackgroundColor=default;endArrow=none;entryX=0;entryY=0.25;entryDx=0;entryDy=0;" parent="1" source="W53H7S4lqF-D5ezC9vgU-9" target="w-bUhG9tgI94XME9KLcf-1" edge="1">
          <mxGeometry relative="1" as="geometry">
            <mxPoint x="920" y="-770" as="targetPoint" />
            <Array as="points" />
          </mxGeometry>
        </mxCell>
        <mxCell id="W53H7S4lqF-D5ezC9vgU-12" value="&lt;font style=&quot;font-size: 18px;&quot;&gt;N&lt;/font&gt;" style="edgeLabel;html=1;align=center;verticalAlign=middle;resizable=0;points=[];fontFamily=Helvetica;fontSize=11;fontColor=default;labelBackgroundColor=default;" parent="W53H7S4lqF-D5ezC9vgU-11" vertex="1" connectable="0">
          <mxGeometry x="-0.1446" y="1" relative="1" as="geometry">
            <mxPoint x="1" as="offset" />
          </mxGeometry>
        </mxCell>
        <mxCell id="W53H7S4lqF-D5ezC9vgU-9" value="&lt;font style=&quot;font-size: 18px;&quot;&gt;限制&lt;/font&gt;" style="rhombus;whiteSpace=wrap;html=1;" parent="1" vertex="1">
          <mxGeometry x="700" y="-805" width="137.5" height="70" as="geometry" />
        </mxCell>
        <mxCell id="W53H7S4lqF-D5ezC9vgU-14" value="&lt;font style=&quot;font-size: 18px;&quot;&gt;空间容量&lt;/font&gt;" style="ellipse;whiteSpace=wrap;html=1;fontFamily=Helvetica;fontSize=11;fontColor=default;labelBackgroundColor=default;" parent="1" vertex="1">
          <mxGeometry x="400" y="-850" width="85" height="70" as="geometry" />
        </mxCell>
        <mxCell id="W53H7S4lqF-D5ezC9vgU-18" style="edgeStyle=none;rounded=0;orthogonalLoop=1;jettySize=auto;html=1;exitX=1;exitY=0.5;exitDx=0;exitDy=0;entryX=0;entryY=0.75;entryDx=0;entryDy=0;strokeColor=default;align=center;verticalAlign=middle;fontFamily=Helvetica;fontSize=11;fontColor=default;labelBackgroundColor=default;endArrow=none;" parent="1" source="W53H7S4lqF-D5ezC9vgU-16" target="W53H7S4lqF-D5ezC9vgU-8" edge="1">
          <mxGeometry relative="1" as="geometry" />
        </mxCell>
        <mxCell id="W53H7S4lqF-D5ezC9vgU-16" value="&lt;span style=&quot;font-size: 18px;&quot;&gt;上传限制&lt;/span&gt;" style="ellipse;whiteSpace=wrap;html=1;fontFamily=Helvetica;fontSize=11;fontColor=default;labelBackgroundColor=default;" parent="1" vertex="1">
          <mxGeometry x="395" y="-755" width="90" height="70" as="geometry" />
        </mxCell>
        <mxCell id="W53H7S4lqF-D5ezC9vgU-30" style="edgeStyle=none;rounded=0;orthogonalLoop=1;jettySize=auto;html=1;strokeColor=default;align=center;verticalAlign=middle;fontFamily=Helvetica;fontSize=11;fontColor=default;labelBackgroundColor=default;endArrow=none;exitX=0.5;exitY=0;exitDx=0;exitDy=0;" parent="1" source="W53H7S4lqF-D5ezC9vgU-29" edge="1">
          <mxGeometry relative="1" as="geometry">
            <mxPoint x="463" y="-411" as="sourcePoint" />
            <mxPoint x="535" y="-500" as="targetPoint" />
          </mxGeometry>
        </mxCell>
        <mxCell id="W53H7S4lqF-D5ezC9vgU-29" value="&lt;span style=&quot;font-size: 18px;&quot;&gt;文件路径&lt;/span&gt;" style="ellipse;whiteSpace=wrap;html=1;fontFamily=Helvetica;fontSize=11;fontColor=default;labelBackgroundColor=default;" parent="1" vertex="1">
          <mxGeometry x="550" y="-610" width="90" height="60" as="geometry" />
        </mxCell>
        <mxCell id="W53H7S4lqF-D5ezC9vgU-34" value="&lt;font style=&quot;font-size: 18px;&quot;&gt;收纳&lt;/font&gt;" style="rhombus;whiteSpace=wrap;html=1;rotation=0;" parent="1" vertex="1">
          <mxGeometry x="1275" y="-610" width="130" height="70" as="geometry" />
        </mxCell>
        <mxCell id="W53H7S4lqF-D5ezC9vgU-35" style="edgeStyle=none;rounded=0;orthogonalLoop=1;jettySize=auto;html=1;exitX=0.25;exitY=0;exitDx=0;exitDy=0;strokeColor=default;align=center;verticalAlign=middle;fontFamily=Helvetica;fontSize=11;fontColor=default;labelBackgroundColor=default;endArrow=none;entryX=0.389;entryY=0.887;entryDx=0;entryDy=0;entryPerimeter=0;" parent="1" source="w-bUhG9tgI94XME9KLcf-4" target="W53H7S4lqF-D5ezC9vgU-34" edge="1">
          <mxGeometry relative="1" as="geometry">
            <mxPoint x="1252" y="-580" as="targetPoint" />
          </mxGeometry>
        </mxCell>
        <mxCell id="W53H7S4lqF-D5ezC9vgU-39" value="&lt;font style=&quot;font-size: 18px;&quot;&gt;1&lt;/font&gt;" style="edgeLabel;html=1;align=center;verticalAlign=middle;resizable=0;points=[];fontFamily=Helvetica;fontSize=11;fontColor=default;labelBackgroundColor=default;" parent="W53H7S4lqF-D5ezC9vgU-35" vertex="1" connectable="0">
          <mxGeometry x="0.1306" y="-1" relative="1" as="geometry">
            <mxPoint y="-1" as="offset" />
          </mxGeometry>
        </mxCell>
        <mxCell id="W53H7S4lqF-D5ezC9vgU-37" style="edgeStyle=none;rounded=0;orthogonalLoop=1;jettySize=auto;html=1;entryX=0.622;entryY=0.873;entryDx=0;entryDy=0;entryPerimeter=0;strokeColor=default;align=center;verticalAlign=middle;fontFamily=Helvetica;fontSize=11;fontColor=default;labelBackgroundColor=default;endArrow=none;exitX=0.75;exitY=0;exitDx=0;exitDy=0;" parent="1" source="w-bUhG9tgI94XME9KLcf-4" target="W53H7S4lqF-D5ezC9vgU-34" edge="1">
          <mxGeometry relative="1" as="geometry">
            <mxPoint x="1281" y="-480" as="sourcePoint" />
          </mxGeometry>
        </mxCell>
        <mxCell id="W53H7S4lqF-D5ezC9vgU-38" value="&lt;font style=&quot;font-size: 18px;&quot;&gt;N&lt;/font&gt;" style="edgeLabel;html=1;align=center;verticalAlign=middle;resizable=0;points=[];fontFamily=Helvetica;fontSize=11;fontColor=default;labelBackgroundColor=default;" parent="W53H7S4lqF-D5ezC9vgU-37" vertex="1" connectable="0">
          <mxGeometry x="0.1197" y="-1" relative="1" as="geometry">
            <mxPoint y="1" as="offset" />
          </mxGeometry>
        </mxCell>
        <mxCell id="W53H7S4lqF-D5ezC9vgU-46" style="edgeStyle=none;rounded=0;orthogonalLoop=1;jettySize=auto;html=1;exitX=0;exitY=0.5;exitDx=0;exitDy=0;entryX=1;entryY=0.5;entryDx=0;entryDy=0;strokeColor=default;align=center;verticalAlign=middle;fontFamily=Helvetica;fontSize=11;fontColor=default;labelBackgroundColor=default;endArrow=none;" parent="1" source="W53H7S4lqF-D5ezC9vgU-43" target="w-bUhG9tgI94XME9KLcf-44" edge="1">
          <mxGeometry relative="1" as="geometry" />
        </mxCell>
        <mxCell id="W53H7S4lqF-D5ezC9vgU-49" value="&lt;font style=&quot;font-size: 18px;&quot;&gt;M&lt;/font&gt;" style="edgeLabel;html=1;align=center;verticalAlign=middle;resizable=0;points=[];fontFamily=Helvetica;fontSize=11;fontColor=default;labelBackgroundColor=default;" parent="W53H7S4lqF-D5ezC9vgU-46" vertex="1" connectable="0">
          <mxGeometry x="-0.1324" y="1" relative="1" as="geometry">
            <mxPoint x="1" as="offset" />
          </mxGeometry>
        </mxCell>
        <mxCell id="W53H7S4lqF-D5ezC9vgU-47" style="edgeStyle=none;rounded=0;orthogonalLoop=1;jettySize=auto;html=1;exitX=1;exitY=0.5;exitDx=0;exitDy=0;entryX=0;entryY=0.5;entryDx=0;entryDy=0;strokeColor=default;align=center;verticalAlign=middle;fontFamily=Helvetica;fontSize=11;fontColor=default;labelBackgroundColor=default;endArrow=none;" parent="1" source="W53H7S4lqF-D5ezC9vgU-43" target="w-bUhG9tgI94XME9KLcf-4" edge="1">
          <mxGeometry relative="1" as="geometry" />
        </mxCell>
        <mxCell id="W53H7S4lqF-D5ezC9vgU-48" value="&lt;font style=&quot;font-size: 18px;&quot;&gt;N&lt;/font&gt;" style="edgeLabel;html=1;align=center;verticalAlign=middle;resizable=0;points=[];fontFamily=Helvetica;fontSize=11;fontColor=default;labelBackgroundColor=default;" parent="W53H7S4lqF-D5ezC9vgU-47" vertex="1" connectable="0">
          <mxGeometry x="-0.1044" relative="1" as="geometry">
            <mxPoint x="1" as="offset" />
          </mxGeometry>
        </mxCell>
        <mxCell id="W53H7S4lqF-D5ezC9vgU-43" value="&lt;font style=&quot;font-size: 18px;&quot;&gt;删除&lt;/font&gt;" style="rhombus;whiteSpace=wrap;html=1;" parent="1" vertex="1">
          <mxGeometry x="1080" y="-500" width="100" height="50" as="geometry" />
        </mxCell>
        <mxCell id="W53H7S4lqF-D5ezC9vgU-44" style="edgeStyle=none;rounded=0;orthogonalLoop=1;jettySize=auto;html=1;exitX=0.5;exitY=1;exitDx=0;exitDy=0;entryX=0.5;entryY=0;entryDx=0;entryDy=0;strokeColor=default;align=center;verticalAlign=middle;fontFamily=Helvetica;fontSize=11;fontColor=default;labelBackgroundColor=default;endArrow=none;" parent="1" source="W53H7S4lqF-D5ezC9vgU-45" target="W53H7S4lqF-D5ezC9vgU-43" edge="1">
          <mxGeometry relative="1" as="geometry" />
        </mxCell>
        <mxCell id="W53H7S4lqF-D5ezC9vgU-45" value="&lt;font style=&quot;font-size: 18px;&quot;&gt;删除标志&lt;/font&gt;" style="ellipse;whiteSpace=wrap;html=1;fontFamily=Helvetica;fontSize=11;fontColor=default;labelBackgroundColor=default;" parent="1" vertex="1">
          <mxGeometry x="1085" y="-580" width="90" height="60" as="geometry" />
        </mxCell>
        <mxCell id="W53H7S4lqF-D5ezC9vgU-51" value="&lt;span style=&quot;font-size: 18px;&quot;&gt;密码&lt;/span&gt;" style="ellipse;whiteSpace=wrap;html=1;fontFamily=Helvetica;fontSize=11;fontColor=default;labelBackgroundColor=default;" parent="1" vertex="1">
          <mxGeometry x="1370" y="-375" width="60" height="50" as="geometry" />
        </mxCell>
        <mxCell id="C1nQSUP3_iVQXWu07cKW-1" value="&lt;span style=&quot;font-size: 18px;&quot;&gt;使用容量&lt;/span&gt;" style="ellipse;whiteSpace=wrap;html=1;fontFamily=Helvetica;fontSize=11;fontColor=default;labelBackgroundColor=default;" parent="1" vertex="1">
          <mxGeometry x="850" y="-695" width="90" height="55" as="geometry" />
        </mxCell>
        <mxCell id="C1nQSUP3_iVQXWu07cKW-5" value="&lt;font style=&quot;font-size: 18px;&quot;&gt;缩略图&lt;/font&gt;" style="rounded=0;whiteSpace=wrap;html=1;" parent="1" vertex="1">
          <mxGeometry x="495" y="-280" width="80" height="50" as="geometry" />
        </mxCell>
        <mxCell id="C1nQSUP3_iVQXWu07cKW-12" value="" style="edgeStyle=none;rounded=0;orthogonalLoop=1;jettySize=auto;html=1;strokeColor=default;align=center;verticalAlign=middle;fontFamily=Helvetica;fontSize=11;fontColor=default;labelBackgroundColor=default;endArrow=none;" parent="1" source="C1nQSUP3_iVQXWu07cKW-7" target="w-bUhG9tgI94XME9KLcf-5" edge="1">
          <mxGeometry relative="1" as="geometry" />
        </mxCell>
        <mxCell id="C1nQSUP3_iVQXWu07cKW-14" value="&lt;font style=&quot;font-size: 18px;&quot;&gt;N&lt;/font&gt;" style="edgeLabel;html=1;align=center;verticalAlign=middle;resizable=0;points=[];fontFamily=Helvetica;fontSize=11;fontColor=default;labelBackgroundColor=default;" parent="C1nQSUP3_iVQXWu07cKW-12" vertex="1" connectable="0">
          <mxGeometry x="0.1253" y="2" relative="1" as="geometry">
            <mxPoint as="offset" />
          </mxGeometry>
        </mxCell>
        <mxCell id="C1nQSUP3_iVQXWu07cKW-13" value="" style="edgeStyle=none;rounded=0;orthogonalLoop=1;jettySize=auto;html=1;strokeColor=default;align=center;verticalAlign=middle;fontFamily=Helvetica;fontSize=11;fontColor=default;labelBackgroundColor=default;endArrow=none;" parent="1" source="C1nQSUP3_iVQXWu07cKW-7" target="C1nQSUP3_iVQXWu07cKW-5" edge="1">
          <mxGeometry relative="1" as="geometry" />
        </mxCell>
        <mxCell id="C1nQSUP3_iVQXWu07cKW-15" value="&lt;font style=&quot;font-size: 18px;&quot;&gt;1&lt;/font&gt;" style="edgeLabel;html=1;align=center;verticalAlign=middle;resizable=0;points=[];fontFamily=Helvetica;fontSize=11;fontColor=default;labelBackgroundColor=default;" parent="C1nQSUP3_iVQXWu07cKW-13" vertex="1" connectable="0">
          <mxGeometry x="-0.1945" relative="1" as="geometry">
            <mxPoint as="offset" />
          </mxGeometry>
        </mxCell>
        <mxCell id="C1nQSUP3_iVQXWu07cKW-7" value="&lt;font style=&quot;font-size: 18px;&quot;&gt;显示格式&lt;/font&gt;" style="rhombus;whiteSpace=wrap;html=1;" parent="1" vertex="1">
          <mxGeometry x="477.5" y="-400" width="115" height="70" as="geometry" />
        </mxCell>
        <mxCell id="C1nQSUP3_iVQXWu07cKW-8" value="&lt;font style=&quot;font-size: 18px;&quot;&gt;文件放入时间&lt;/font&gt;" style="ellipse;whiteSpace=wrap;html=1;fontFamily=Helvetica;fontSize=11;fontColor=default;labelBackgroundColor=default;" parent="1" vertex="1">
          <mxGeometry x="807.03" y="-607.5" width="123.25" height="55" as="geometry" />
        </mxCell>
        <mxCell id="C1nQSUP3_iVQXWu07cKW-10" value="&lt;span style=&quot;font-size: 18px;&quot;&gt;回收站文件保存时间&lt;/span&gt;" style="ellipse;whiteSpace=wrap;html=1;fontFamily=Helvetica;fontSize=11;fontColor=default;labelBackgroundColor=default;" parent="1" vertex="1">
          <mxGeometry x="502.5" y="-920" width="175" height="100" as="geometry" />
        </mxCell>
        <mxCell id="C1nQSUP3_iVQXWu07cKW-20" value="" style="edgeStyle=none;rounded=0;orthogonalLoop=1;jettySize=auto;html=1;strokeColor=default;align=center;verticalAlign=middle;fontFamily=Helvetica;fontSize=11;fontColor=default;labelBackgroundColor=default;endArrow=none;" parent="1" source="C1nQSUP3_iVQXWu07cKW-16" target="C1nQSUP3_iVQXWu07cKW-5" edge="1">
          <mxGeometry relative="1" as="geometry" />
        </mxCell>
        <mxCell id="C1nQSUP3_iVQXWu07cKW-16" value="&lt;span style=&quot;font-size: 18px;&quot;&gt;文件格式&lt;/span&gt;" style="ellipse;whiteSpace=wrap;html=1;fontFamily=Helvetica;fontSize=11;fontColor=default;labelBackgroundColor=default;" parent="1" vertex="1">
          <mxGeometry x="360" y="-285" width="90" height="65" as="geometry" />
        </mxCell>
        <mxCell id="C1nQSUP3_iVQXWu07cKW-19" value="" style="edgeStyle=none;rounded=0;orthogonalLoop=1;jettySize=auto;html=1;strokeColor=default;align=center;verticalAlign=middle;fontFamily=Helvetica;fontSize=11;fontColor=default;labelBackgroundColor=default;endArrow=none;" parent="1" source="C1nQSUP3_iVQXWu07cKW-18" target="C1nQSUP3_iVQXWu07cKW-5" edge="1">
          <mxGeometry relative="1" as="geometry" />
        </mxCell>
        <mxCell id="C1nQSUP3_iVQXWu07cKW-18" value="&lt;span style=&quot;font-size: 18px;&quot;&gt;缩略图路径&lt;/span&gt;" style="ellipse;whiteSpace=wrap;html=1;fontFamily=Helvetica;fontSize=11;fontColor=default;labelBackgroundColor=default;" parent="1" vertex="1">
          <mxGeometry x="620" y="-292.5" width="107.5" height="75" as="geometry" />
        </mxCell>
        <mxCell id="IPDYAbLBvHTaS5DrfQRZ-4" style="edgeStyle=none;rounded=0;orthogonalLoop=1;jettySize=auto;html=1;exitX=0;exitY=1;exitDx=0;exitDy=0;entryX=0.604;entryY=0.026;entryDx=0;entryDy=0;entryPerimeter=0;strokeColor=default;align=center;verticalAlign=middle;fontFamily=Helvetica;fontSize=11;fontColor=default;labelBackgroundColor=default;endArrow=none;" parent="1" source="w-bUhG9tgI94XME9KLcf-1" target="C1nQSUP3_iVQXWu07cKW-1" edge="1">
          <mxGeometry relative="1" as="geometry" />
        </mxCell>
        <mxCell id="IPDYAbLBvHTaS5DrfQRZ-6" style="edgeStyle=none;rounded=0;orthogonalLoop=1;jettySize=auto;html=1;exitX=0;exitY=1;exitDx=0;exitDy=0;entryX=1;entryY=0;entryDx=0;entryDy=0;strokeColor=default;align=center;verticalAlign=middle;fontFamily=Helvetica;fontSize=11;fontColor=default;labelBackgroundColor=default;endArrow=none;" parent="1" source="w-bUhG9tgI94XME9KLcf-55" target="w-bUhG9tgI94XME9KLcf-1" edge="1">
          <mxGeometry relative="1" as="geometry" />
        </mxCell>
        <mxCell id="IPDYAbLBvHTaS5DrfQRZ-9" style="edgeStyle=none;rounded=0;orthogonalLoop=1;jettySize=auto;html=1;entryX=0.5;entryY=0;entryDx=0;entryDy=0;strokeColor=default;align=center;verticalAlign=middle;fontFamily=Helvetica;fontSize=11;fontColor=default;labelBackgroundColor=default;endArrow=none;" parent="1" source="IPDYAbLBvHTaS5DrfQRZ-7" target="IPDYAbLBvHTaS5DrfQRZ-8" edge="1">
          <mxGeometry relative="1" as="geometry" />
        </mxCell>
        <mxCell id="IPDYAbLBvHTaS5DrfQRZ-21" value="&lt;font style=&quot;font-size: 18px;&quot;&gt;M&lt;/font&gt;" style="edgeLabel;html=1;align=center;verticalAlign=middle;resizable=0;points=[];fontFamily=Helvetica;fontSize=11;fontColor=default;labelBackgroundColor=default;" parent="IPDYAbLBvHTaS5DrfQRZ-9" vertex="1" connectable="0">
          <mxGeometry x="-0.27" y="-2" relative="1" as="geometry">
            <mxPoint x="2" y="6" as="offset" />
          </mxGeometry>
        </mxCell>
        <mxCell id="IPDYAbLBvHTaS5DrfQRZ-13" style="edgeStyle=none;rounded=0;orthogonalLoop=1;jettySize=auto;html=1;exitX=1;exitY=0.5;exitDx=0;exitDy=0;entryX=0;entryY=0.5;entryDx=0;entryDy=0;strokeColor=default;align=center;verticalAlign=middle;fontFamily=Helvetica;fontSize=11;fontColor=default;labelBackgroundColor=default;endArrow=none;" parent="1" source="IPDYAbLBvHTaS5DrfQRZ-7" target="IPDYAbLBvHTaS5DrfQRZ-11" edge="1">
          <mxGeometry relative="1" as="geometry" />
        </mxCell>
        <mxCell id="IPDYAbLBvHTaS5DrfQRZ-7" value="&lt;span style=&quot;font-size: 18px;&quot;&gt;访问者&lt;/span&gt;" style="rounded=0;whiteSpace=wrap;html=1;" parent="1" vertex="1">
          <mxGeometry x="918.44" y="-960" width="64.87" height="40" as="geometry" />
        </mxCell>
        <mxCell id="IPDYAbLBvHTaS5DrfQRZ-10" style="edgeStyle=none;rounded=0;orthogonalLoop=1;jettySize=auto;html=1;exitX=0.5;exitY=1;exitDx=0;exitDy=0;entryX=0.5;entryY=0;entryDx=0;entryDy=0;strokeColor=default;align=center;verticalAlign=middle;fontFamily=Helvetica;fontSize=11;fontColor=default;labelBackgroundColor=default;endArrow=none;" parent="1" source="IPDYAbLBvHTaS5DrfQRZ-8" target="w-bUhG9tgI94XME9KLcf-1" edge="1">
          <mxGeometry relative="1" as="geometry" />
        </mxCell>
        <mxCell id="IPDYAbLBvHTaS5DrfQRZ-20" value="&lt;font style=&quot;font-size: 18px;&quot;&gt;N&lt;/font&gt;" style="edgeLabel;html=1;align=center;verticalAlign=middle;resizable=0;points=[];fontFamily=Helvetica;fontSize=11;fontColor=default;labelBackgroundColor=default;" parent="IPDYAbLBvHTaS5DrfQRZ-10" vertex="1" connectable="0">
          <mxGeometry x="-0.2373" relative="1" as="geometry">
            <mxPoint y="5" as="offset" />
          </mxGeometry>
        </mxCell>
        <mxCell id="IPDYAbLBvHTaS5DrfQRZ-8" value="&lt;font style=&quot;font-size: 18px;&quot;&gt;登入&lt;/font&gt;" style="rhombus;whiteSpace=wrap;html=1;" parent="1" vertex="1">
          <mxGeometry x="894.0600000000001" y="-880" width="113.62" height="60" as="geometry" />
        </mxCell>
        <mxCell id="IPDYAbLBvHTaS5DrfQRZ-11" value="&lt;font style=&quot;font-size: 18px;&quot;&gt;浏览器请求头&lt;/font&gt;" style="ellipse;whiteSpace=wrap;html=1;fontFamily=Helvetica;fontSize=11;fontColor=default;labelBackgroundColor=default;" parent="1" vertex="1">
          <mxGeometry x="1007.6800000000001" y="-978.75" width="129.87" height="77.5" as="geometry" />
        </mxCell>
        <mxCell id="IPDYAbLBvHTaS5DrfQRZ-14" style="edgeStyle=none;rounded=0;orthogonalLoop=1;jettySize=auto;html=1;exitX=1;exitY=0.5;exitDx=0;exitDy=0;entryX=0;entryY=0.5;entryDx=0;entryDy=0;strokeColor=default;align=center;verticalAlign=middle;fontFamily=Helvetica;fontSize=11;fontColor=default;labelBackgroundColor=default;endArrow=none;" parent="1" source="IPDYAbLBvHTaS5DrfQRZ-12" target="IPDYAbLBvHTaS5DrfQRZ-7" edge="1">
          <mxGeometry relative="1" as="geometry" />
        </mxCell>
        <mxCell id="IPDYAbLBvHTaS5DrfQRZ-12" value="&lt;font style=&quot;font-size: 18px;&quot;&gt;IP&lt;/font&gt;" style="ellipse;whiteSpace=wrap;html=1;fontFamily=Helvetica;fontSize=11;fontColor=default;labelBackgroundColor=default;" parent="1" vertex="1">
          <mxGeometry x="790" y="-967.5" width="90" height="55" as="geometry" />
        </mxCell>
        <mxCell id="hmtRKzBcNORo22viZgbk-3" style="edgeStyle=none;rounded=0;orthogonalLoop=1;jettySize=auto;html=1;strokeColor=default;align=center;verticalAlign=middle;fontFamily=Helvetica;fontSize=11;fontColor=default;labelBackgroundColor=default;endArrow=none;entryX=0;entryY=0.5;entryDx=0;entryDy=0;exitX=1;exitY=0.5;exitDx=0;exitDy=0;" edge="1" parent="1" source="hmtRKzBcNORo22viZgbk-1" target="w-bUhG9tgI94XME9KLcf-1">
          <mxGeometry relative="1" as="geometry">
            <Array as="points" />
          </mxGeometry>
        </mxCell>
        <mxCell id="hmtRKzBcNORo22viZgbk-1" value="&lt;span style=&quot;font-size: 18px;&quot;&gt;用户名&lt;/span&gt;" style="ellipse;whiteSpace=wrap;html=1;fontFamily=Helvetica;fontSize=11;fontColor=default;labelBackgroundColor=default;" vertex="1" parent="1">
          <mxGeometry x="807.03" y="-755" width="60" height="55" as="geometry" />
        </mxCell>
        <mxCell id="hmtRKzBcNORo22viZgbk-11" value="" style="edgeStyle=none;rounded=0;orthogonalLoop=1;jettySize=auto;html=1;strokeColor=default;align=center;verticalAlign=middle;fontFamily=Helvetica;fontSize=11;fontColor=default;labelBackgroundColor=default;endArrow=none;" edge="1" parent="1" source="hmtRKzBcNORo22viZgbk-9" target="hmtRKzBcNORo22viZgbk-10">
          <mxGeometry relative="1" as="geometry" />
        </mxCell>
        <mxCell id="hmtRKzBcNORo22viZgbk-13" value="&lt;font style=&quot;font-size: 18px;&quot;&gt;1&lt;/font&gt;" style="edgeLabel;html=1;align=center;verticalAlign=middle;resizable=0;points=[];fontFamily=Helvetica;fontSize=11;fontColor=default;labelBackgroundColor=default;" vertex="1" connectable="0" parent="hmtRKzBcNORo22viZgbk-11">
          <mxGeometry x="0.0657" y="-2" relative="1" as="geometry">
            <mxPoint x="-1" as="offset" />
          </mxGeometry>
        </mxCell>
        <mxCell id="hmtRKzBcNORo22viZgbk-16" style="edgeStyle=none;rounded=0;orthogonalLoop=1;jettySize=auto;html=1;exitX=1;exitY=0;exitDx=0;exitDy=0;entryX=0;entryY=0.5;entryDx=0;entryDy=0;strokeColor=default;align=center;verticalAlign=middle;fontFamily=Helvetica;fontSize=11;fontColor=default;labelBackgroundColor=default;endArrow=none;" edge="1" parent="1" source="hmtRKzBcNORo22viZgbk-9" target="hmtRKzBcNORo22viZgbk-15">
          <mxGeometry relative="1" as="geometry" />
        </mxCell>
        <mxCell id="hmtRKzBcNORo22viZgbk-19" style="edgeStyle=none;rounded=0;orthogonalLoop=1;jettySize=auto;html=1;exitX=0.5;exitY=0;exitDx=0;exitDy=0;entryX=0.5;entryY=1;entryDx=0;entryDy=0;strokeColor=default;align=center;verticalAlign=middle;fontFamily=Helvetica;fontSize=11;fontColor=default;labelBackgroundColor=default;endArrow=none;" edge="1" parent="1" source="hmtRKzBcNORo22viZgbk-9" target="hmtRKzBcNORo22viZgbk-18">
          <mxGeometry relative="1" as="geometry" />
        </mxCell>
        <mxCell id="hmtRKzBcNORo22viZgbk-9" value="&lt;font style=&quot;font-size: 18px;&quot;&gt;注册码&lt;/font&gt;" style="rounded=0;whiteSpace=wrap;html=1;" vertex="1" parent="1">
          <mxGeometry x="1200" y="-777.5" width="70" height="45" as="geometry" />
        </mxCell>
        <mxCell id="hmtRKzBcNORo22viZgbk-12" value="" style="edgeStyle=none;rounded=0;orthogonalLoop=1;jettySize=auto;html=1;strokeColor=default;align=center;verticalAlign=middle;fontFamily=Helvetica;fontSize=11;fontColor=default;labelBackgroundColor=default;endArrow=none;" edge="1" parent="1" source="hmtRKzBcNORo22viZgbk-10" target="w-bUhG9tgI94XME9KLcf-1">
          <mxGeometry relative="1" as="geometry" />
        </mxCell>
        <mxCell id="hmtRKzBcNORo22viZgbk-14" value="&lt;font style=&quot;font-size: 18px;&quot;&gt;N&lt;/font&gt;" style="edgeLabel;html=1;align=center;verticalAlign=middle;resizable=0;points=[];fontFamily=Helvetica;fontSize=11;fontColor=default;labelBackgroundColor=default;" vertex="1" connectable="0" parent="hmtRKzBcNORo22viZgbk-12">
          <mxGeometry x="-0.0454" y="-3" relative="1" as="geometry">
            <mxPoint x="1" as="offset" />
          </mxGeometry>
        </mxCell>
        <mxCell id="hmtRKzBcNORo22viZgbk-10" value="&lt;font style=&quot;font-size: 18px;&quot;&gt;管理&lt;/font&gt;" style="rhombus;whiteSpace=wrap;html=1;" vertex="1" parent="1">
          <mxGeometry x="1040" y="-780" width="100" height="50" as="geometry" />
        </mxCell>
        <mxCell id="hmtRKzBcNORo22viZgbk-15" value="&lt;span style=&quot;font-size: 18px;&quot;&gt;注册码号&lt;/span&gt;" style="ellipse;whiteSpace=wrap;html=1;fontFamily=Helvetica;fontSize=11;fontColor=default;labelBackgroundColor=default;" vertex="1" parent="1">
          <mxGeometry x="1320" y="-830" width="90" height="62.5" as="geometry" />
        </mxCell>
        <mxCell id="hmtRKzBcNORo22viZgbk-20" value="" style="edgeStyle=none;rounded=0;orthogonalLoop=1;jettySize=auto;html=1;strokeColor=default;align=center;verticalAlign=middle;fontFamily=Helvetica;fontSize=11;fontColor=default;labelBackgroundColor=default;endArrow=none;" edge="1" parent="1" source="hmtRKzBcNORo22viZgbk-17" target="hmtRKzBcNORo22viZgbk-9">
          <mxGeometry relative="1" as="geometry" />
        </mxCell>
        <mxCell id="hmtRKzBcNORo22viZgbk-17" value="&lt;span style=&quot;font-size: 18px;&quot;&gt;等级&lt;/span&gt;" style="ellipse;whiteSpace=wrap;html=1;fontFamily=Helvetica;fontSize=11;fontColor=default;labelBackgroundColor=default;" vertex="1" parent="1">
          <mxGeometry x="1330" y="-765" width="80" height="50" as="geometry" />
        </mxCell>
        <mxCell id="hmtRKzBcNORo22viZgbk-18" value="&lt;span style=&quot;font-size: 18px;&quot;&gt;使用次数&lt;/span&gt;" style="ellipse;whiteSpace=wrap;html=1;fontFamily=Helvetica;fontSize=11;fontColor=default;labelBackgroundColor=default;" vertex="1" parent="1">
          <mxGeometry x="1190" y="-867.5" width="90" height="62.5" as="geometry" />
        </mxCell>
        <mxCell id="hmtRKzBcNORo22viZgbk-25" style="edgeStyle=none;rounded=0;orthogonalLoop=1;jettySize=auto;html=1;exitX=0;exitY=1;exitDx=0;exitDy=0;entryX=1;entryY=0;entryDx=0;entryDy=0;strokeColor=default;align=center;verticalAlign=middle;fontFamily=Helvetica;fontSize=11;fontColor=default;labelBackgroundColor=default;endArrow=none;" edge="1" parent="1" source="hmtRKzBcNORo22viZgbk-21" target="w-bUhG9tgI94XME9KLcf-4">
          <mxGeometry relative="1" as="geometry" />
        </mxCell>
        <mxCell id="hmtRKzBcNORo22viZgbk-21" value="&lt;span style=&quot;font-size: 18px;&quot;&gt;用户名&lt;/span&gt;" style="ellipse;whiteSpace=wrap;html=1;fontFamily=Helvetica;fontSize=11;fontColor=default;labelBackgroundColor=default;" vertex="1" parent="1">
          <mxGeometry x="1405" y="-575" width="70" height="55" as="geometry" />
        </mxCell>
        <mxCell id="hmtRKzBcNORo22viZgbk-22" style="edgeStyle=none;rounded=0;orthogonalLoop=1;jettySize=auto;html=1;exitX=1;exitY=1;exitDx=0;exitDy=0;strokeColor=default;align=center;verticalAlign=middle;fontFamily=Helvetica;fontSize=11;fontColor=default;labelBackgroundColor=default;endArrow=none;" edge="1" parent="1" source="W53H7S4lqF-D5ezC9vgU-51" target="W53H7S4lqF-D5ezC9vgU-51">
          <mxGeometry relative="1" as="geometry" />
        </mxCell>
        <mxCell id="hmtRKzBcNORo22viZgbk-23" value="&lt;span style=&quot;font-size: 18px;&quot;&gt;隶属&lt;/span&gt;" style="ellipse;whiteSpace=wrap;html=1;fontFamily=Helvetica;fontSize=11;fontColor=default;labelBackgroundColor=default;" vertex="1" parent="1">
          <mxGeometry x="1440" y="-370" width="60" height="50" as="geometry" />
        </mxCell>
        <mxCell id="hmtRKzBcNORo22viZgbk-26" value="" style="edgeStyle=none;rounded=0;orthogonalLoop=1;jettySize=auto;html=1;strokeColor=default;align=center;verticalAlign=middle;fontFamily=Helvetica;fontSize=11;fontColor=default;labelBackgroundColor=default;endArrow=none;" edge="1" parent="1" source="hmtRKzBcNORo22viZgbk-24" target="w-bUhG9tgI94XME9KLcf-4">
          <mxGeometry relative="1" as="geometry" />
        </mxCell>
        <mxCell id="hmtRKzBcNORo22viZgbk-24" value="&lt;span style=&quot;font-size: 18px;&quot;&gt;文件夹id&lt;/span&gt;" style="ellipse;whiteSpace=wrap;html=1;fontFamily=Helvetica;fontSize=11;fontColor=default;labelBackgroundColor=default;" vertex="1" parent="1">
          <mxGeometry x="1450" y="-530" width="80" height="63.75" as="geometry" />
        </mxCell>
        <mxCell id="hmtRKzBcNORo22viZgbk-28" style="edgeStyle=none;rounded=0;orthogonalLoop=1;jettySize=auto;html=1;exitX=0;exitY=0.5;exitDx=0;exitDy=0;entryX=1;entryY=0.5;entryDx=0;entryDy=0;strokeColor=default;align=center;verticalAlign=middle;fontFamily=Helvetica;fontSize=11;fontColor=default;labelBackgroundColor=default;endArrow=none;" edge="1" parent="1" source="hmtRKzBcNORo22viZgbk-27" target="w-bUhG9tgI94XME9KLcf-4">
          <mxGeometry relative="1" as="geometry" />
        </mxCell>
        <mxCell id="hmtRKzBcNORo22viZgbk-27" value="&lt;span style=&quot;font-size: 18px;&quot;&gt;父级文件夹id&lt;/span&gt;" style="ellipse;whiteSpace=wrap;html=1;fontFamily=Helvetica;fontSize=11;fontColor=default;labelBackgroundColor=default;" vertex="1" parent="1">
          <mxGeometry x="1460" y="-466.25" width="130" height="46.25" as="geometry" />
        </mxCell>
        <mxCell id="hmtRKzBcNORo22viZgbk-29" value="&lt;span style=&quot;font-size: 18px;&quot;&gt;是否被删除&lt;/span&gt;" style="ellipse;whiteSpace=wrap;html=1;fontFamily=Helvetica;fontSize=11;fontColor=default;labelBackgroundColor=default;" vertex="1" parent="1">
          <mxGeometry x="1490" y="-418.75" width="110" height="78.75" as="geometry" />
        </mxCell>
        <mxCell id="hmtRKzBcNORo22viZgbk-36" style="edgeStyle=none;rounded=0;orthogonalLoop=1;jettySize=auto;html=1;exitX=1;exitY=0.5;exitDx=0;exitDy=0;entryX=0;entryY=0;entryDx=0;entryDy=0;strokeColor=default;align=center;verticalAlign=middle;fontFamily=Helvetica;fontSize=11;fontColor=default;labelBackgroundColor=default;endArrow=none;" edge="1" parent="1" source="hmtRKzBcNORo22viZgbk-32" target="w-bUhG9tgI94XME9KLcf-5">
          <mxGeometry relative="1" as="geometry" />
        </mxCell>
        <mxCell id="hmtRKzBcNORo22viZgbk-32" value="&lt;font style=&quot;font-size: 18px;&quot;&gt;文件夹id&lt;/font&gt;" style="ellipse;whiteSpace=wrap;html=1;fontFamily=Helvetica;fontSize=11;fontColor=default;labelBackgroundColor=default;" vertex="1" parent="1">
          <mxGeometry x="330" y="-550" width="80" height="45" as="geometry" />
        </mxCell>
        <mxCell id="hmtRKzBcNORo22viZgbk-37" value="" style="edgeStyle=none;rounded=0;orthogonalLoop=1;jettySize=auto;html=1;strokeColor=default;align=center;verticalAlign=middle;fontFamily=Helvetica;fontSize=11;fontColor=default;labelBackgroundColor=default;endArrow=none;entryX=0;entryY=0;entryDx=0;entryDy=0;" edge="1" parent="1" source="hmtRKzBcNORo22viZgbk-33" target="w-bUhG9tgI94XME9KLcf-5">
          <mxGeometry relative="1" as="geometry" />
        </mxCell>
        <mxCell id="hmtRKzBcNORo22viZgbk-33" value="&lt;font style=&quot;font-size: 18px;&quot;&gt;创建时间&lt;/font&gt;" style="ellipse;whiteSpace=wrap;html=1;fontFamily=Helvetica;fontSize=11;fontColor=default;labelBackgroundColor=default;" vertex="1" parent="1">
          <mxGeometry x="320" y="-500" width="80" height="45" as="geometry" />
        </mxCell>
        <mxCell id="hmtRKzBcNORo22viZgbk-39" style="edgeStyle=none;rounded=0;orthogonalLoop=1;jettySize=auto;html=1;exitX=1;exitY=0.5;exitDx=0;exitDy=0;entryX=0;entryY=0;entryDx=0;entryDy=0;strokeColor=default;align=center;verticalAlign=middle;fontFamily=Helvetica;fontSize=11;fontColor=default;labelBackgroundColor=default;endArrow=none;" edge="1" parent="1" source="hmtRKzBcNORo22viZgbk-35" target="w-bUhG9tgI94XME9KLcf-5">
          <mxGeometry relative="1" as="geometry" />
        </mxCell>
        <mxCell id="hmtRKzBcNORo22viZgbk-35" value="&lt;font style=&quot;font-size: 18px;&quot;&gt;是否被删除&lt;/font&gt;" style="ellipse;whiteSpace=wrap;html=1;fontFamily=Helvetica;fontSize=11;fontColor=default;labelBackgroundColor=default;" vertex="1" parent="1">
          <mxGeometry x="260" y="-450" width="120" height="60" as="geometry" />
        </mxCell>
        <mxCell id="hmtRKzBcNORo22viZgbk-40" value="&lt;font style=&quot;font-size: 18px;&quot;&gt;复制次数&lt;/font&gt;" style="ellipse;whiteSpace=wrap;html=1;fontFamily=Helvetica;fontSize=11;fontColor=default;labelBackgroundColor=default;" vertex="1" parent="1">
          <mxGeometry x="370" y="-415" width="90" height="51.25" as="geometry" />
        </mxCell>
        <mxCell id="hmtRKzBcNORo22viZgbk-41" style="edgeStyle=none;rounded=0;orthogonalLoop=1;jettySize=auto;html=1;exitX=0;exitY=1;exitDx=0;exitDy=0;entryX=1;entryY=0;entryDx=0;entryDy=0;strokeColor=default;align=center;verticalAlign=middle;fontFamily=Helvetica;fontSize=11;fontColor=default;labelBackgroundColor=default;endArrow=none;" edge="1" parent="1" source="w-bUhG9tgI94XME9KLcf-5" target="hmtRKzBcNORo22viZgbk-40">
          <mxGeometry relative="1" as="geometry" />
        </mxCell>
        <mxCell id="hmtRKzBcNORo22viZgbk-43" value="" style="edgeStyle=none;rounded=0;orthogonalLoop=1;jettySize=auto;html=1;strokeColor=default;align=center;verticalAlign=middle;fontFamily=Helvetica;fontSize=11;fontColor=default;labelBackgroundColor=default;endArrow=none;" edge="1" parent="1" source="hmtRKzBcNORo22viZgbk-42" target="w-bUhG9tgI94XME9KLcf-44">
          <mxGeometry relative="1" as="geometry" />
        </mxCell>
        <mxCell id="hmtRKzBcNORo22viZgbk-42" value="&lt;font style=&quot;font-size: 18px;&quot;&gt;文件id&lt;/font&gt;" style="ellipse;whiteSpace=wrap;html=1;fontFamily=Helvetica;fontSize=11;fontColor=default;labelBackgroundColor=default;" vertex="1" parent="1">
          <mxGeometry x="935.13" y="-610" width="60" height="55" as="geometry" />
        </mxCell>
        <mxCell id="hmtRKzBcNORo22viZgbk-44" value="&lt;span style=&quot;font-size: 18px;&quot;&gt;用户名&lt;/span&gt;" style="ellipse;whiteSpace=wrap;html=1;fontFamily=Helvetica;fontSize=11;fontColor=default;labelBackgroundColor=default;" vertex="1" parent="1">
          <mxGeometry x="1005.13" y="-606.25" width="64.87" height="62.5" as="geometry" />
        </mxCell>
        <mxCell id="hmtRKzBcNORo22viZgbk-45" style="edgeStyle=none;rounded=0;orthogonalLoop=1;jettySize=auto;html=1;exitX=0.75;exitY=0;exitDx=0;exitDy=0;entryX=0.302;entryY=0.943;entryDx=0;entryDy=0;entryPerimeter=0;strokeColor=default;align=center;verticalAlign=middle;fontFamily=Helvetica;fontSize=11;fontColor=default;labelBackgroundColor=default;endArrow=none;" edge="1" parent="1" source="w-bUhG9tgI94XME9KLcf-44" target="hmtRKzBcNORo22viZgbk-44">
          <mxGeometry relative="1" as="geometry" />
        </mxCell>
        <mxCell id="hmtRKzBcNORo22viZgbk-46" value="&lt;span style=&quot;font-size: 18px;&quot;&gt;文件还是文件夹&lt;/span&gt;" style="ellipse;whiteSpace=wrap;html=1;fontFamily=Helvetica;fontSize=11;fontColor=default;labelBackgroundColor=default;" vertex="1" parent="1">
          <mxGeometry x="790" y="-455" width="142.97" height="82.5" as="geometry" />
        </mxCell>
        <mxCell id="hmtRKzBcNORo22viZgbk-48" value="&lt;span style=&quot;font-size: 18px;&quot;&gt;删除时间&lt;/span&gt;" style="ellipse;whiteSpace=wrap;html=1;fontFamily=Helvetica;fontSize=11;fontColor=default;labelBackgroundColor=default;" vertex="1" parent="1">
          <mxGeometry x="975.13" y="-410" width="84.87" height="46.25" as="geometry" />
        </mxCell>
        <mxCell id="hmtRKzBcNORo22viZgbk-51" style="edgeStyle=none;rounded=0;orthogonalLoop=1;jettySize=auto;html=1;exitX=0.5;exitY=1;exitDx=0;exitDy=0;entryX=0.5;entryY=0;entryDx=0;entryDy=0;strokeColor=default;align=center;verticalAlign=middle;fontFamily=Helvetica;fontSize=11;fontColor=default;labelBackgroundColor=default;endArrow=none;" edge="1" parent="1" source="hmtRKzBcNORo22viZgbk-50" target="IPDYAbLBvHTaS5DrfQRZ-7">
          <mxGeometry relative="1" as="geometry" />
        </mxCell>
        <mxCell id="hmtRKzBcNORo22viZgbk-50" value="&lt;font style=&quot;font-size: 18px;&quot;&gt;登录失败次数&lt;/font&gt;" style="ellipse;whiteSpace=wrap;html=1;fontFamily=Helvetica;fontSize=11;fontColor=default;labelBackgroundColor=default;" vertex="1" parent="1">
          <mxGeometry x="894.0600000000001" y="-1050" width="114.12" height="65" as="geometry" />
        </mxCell>
      </root>
    </mxGraphModel>
  </diagram>
</mxfile>
